<?xml version="1.0" encoding="UTF-8"?>
<!DOCTYPE svg PUBLIC "-//W3C//DTD SVG 1.1//EN" "http://www.w3.org/Graphics/SVG/1.1/DTD/svg11.dtd">
<!-- Creator: CorelDRAW 2020 (64-Bit) -->
<svg xmlns="http://www.w3.org/2000/svg" xml:space="preserve" width="70.1731mm" height="22.1954mm" version="1.1" style="shape-rendering:geometricPrecision; text-rendering:geometricPrecision; image-rendering:optimizeQuality; fill-rule:evenodd; clip-rule:evenodd"
viewBox="0 0 2468.81 780.87"
 xmlns:xlink="http://www.w3.org/1999/xlink"
 xmlns:xodm="http://www.corel.com/coreldraw/odm/2003">
 <defs>
  <style type="text/css">
   <![CDATA[
    .fil0 {fill:#00AFEF}
    .fil1 {fill:#FEFEFE}
    .fil2 {fill:#373435;fill-rule:nonzero}
   ]]>
  </style>
 </defs>
 <g id="Capa_x0020_1">
  <metadata id="CorelCorpID_0Corel-Layer"/>
  <g id="_2017209222080">
   <polygon class="fil0" points="67.6,700.34 67.96,267.81 377.8,97.1 685.63,267.16 685.06,700.86 "/>
   <polygon class="fil1" points="123.03,687.69 273.64,688.08 274.09,398.08 123.5,398.01 "/>
   <g>
    <polygon class="fil1" points="519.26,512.29 601.38,512.78 601.49,443.51 519.65,442.8 "/>
    <polygon class="fil1" points="411.95,511.98 493.92,512.88 494.02,443.12 412.24,442.89 "/>
    <polygon class="fil1" points="412.05,607.84 493.38,608.37 494.08,538.72 412.7,538.41 "/>
    <polygon class="fil1" points="519.42,608.07 600.84,608.38 601.43,538.95 520.33,538.45 "/>
   </g>
  </g>
  <path class="fil0" d="M32.94 191.88c96.52,-56.36 193.04,-112.72 289.55,-169.08 47.5,-27.73 38.35,-31.81 90.4,-3.09 126.11,69.58 252.21,139.15 378.32,208.73 27.13,14.97 23.33,79.74 -33.96,48.31 -129.29,-70.92 -258.57,-141.85 -387.86,-212.77 -106.51,61.59 -213.02,123.17 -319.53,184.76 -49.53,28.64 -73.91,-23.59 -16.92,-56.86z"/>
  <path class="fil2" d="M757.81 517.43l50.05 148.23 50.2 -149.26c2.62,-7.88 4.58,-13.34 5.87,-16.37 1.34,-3.09 3.5,-5.82 6.49,-8.29 3.04,-2.47 7.16,-3.71 12.36,-3.71 3.81,0 7.36,0.98 10.66,2.88 3.24,1.9 5.82,4.43 7.67,7.62 1.85,3.14 2.78,6.33 2.78,9.58 0,2.16 -0.31,4.58 -0.93,7.16 -0.57,2.52 -1.34,5.05 -2.21,7.52 -0.93,2.47 -1.85,4.99 -2.73,7.62l-53.49 144.47c-1.96,5.51 -3.86,10.76 -5.77,15.75 -1.9,4.94 -4.12,9.32 -6.64,13.13 -2.47,3.76 -5.82,6.85 -9.99,9.27 -4.17,2.42 -9.27,3.61 -15.29,3.61 -6.08,0 -11.17,-1.19 -15.34,-3.55 -4.17,-2.37 -7.52,-5.46 -10.09,-9.32 -2.52,-3.91 -4.79,-8.29 -6.69,-13.23 -1.91,-4.89 -3.81,-10.14 -5.72,-15.65l-52.62 -143.29c-0.93,-2.58 -1.85,-5.15 -2.78,-7.67 -0.98,-2.53 -1.75,-5.25 -2.42,-8.14 -0.67,-2.93 -0.98,-5.4 -0.98,-7.41 0,-5.1 2.06,-9.78 6.18,-14.01 4.12,-4.22 9.32,-6.33 15.55,-6.33 7.62,0 13.03,2.32 16.17,7 3.19,4.69 6.43,12.15 9.73,22.4z"/>
  <path id="1" class="fil2" d="M971.8 572.57l0 119.04c0,8.24 -1.96,14.47 -5.87,18.69 -3.91,4.22 -8.86,6.33 -14.88,6.33 -6.03,0 -10.92,-2.16 -14.67,-6.49 -3.76,-4.33 -5.66,-10.51 -5.66,-18.54l0 -117.8c0,-8.19 1.9,-14.32 5.66,-18.44 3.76,-4.12 8.65,-6.18 14.67,-6.18 6.02,0 10.97,2.06 14.88,6.18 3.91,4.12 5.87,9.89 5.87,17.2zm-20.34 -42.53c-5.72,0 -10.61,-1.75 -14.67,-5.25 -4.07,-3.5 -6.08,-8.49 -6.08,-14.93 0,-5.77 2.06,-10.55 6.23,-14.31 4.17,-3.76 9.01,-5.66 14.52,-5.66 5.35,0 10.04,1.7 14.16,5.1 4.12,3.45 6.18,8.39 6.18,14.88 0,6.33 -2.01,11.28 -6.02,14.83 -4.01,3.55 -8.75,5.35 -14.31,5.35z"/>
  <path id="2" class="fil2" d="M1043.52 574.84l33.31 93.61 35.89 -97.67c2.83,-7.82 5.56,-13.39 8.29,-16.68 2.73,-3.24 6.85,-4.89 12.36,-4.89 5.25,0 9.68,1.75 13.34,5.31 3.66,3.5 5.51,7.57 5.51,12.2 0,1.8 -0.31,3.91 -0.98,6.33 -0.67,2.42 -1.39,4.69 -2.27,6.8 -0.88,2.11 -1.85,4.53 -2.94,7.21l-39.49 98.08c-1.13,2.78 -2.53,6.39 -4.33,10.71 -1.75,4.33 -3.7,7.98 -5.87,11.07 -2.16,3.09 -4.84,5.46 -7.98,7.16 -3.19,1.7 -7,2.58 -11.53,2.58 -5.82,0 -10.45,-1.34 -13.95,-4.02 -3.45,-2.62 -6.02,-5.56 -7.67,-8.75 -1.65,-3.14 -4.48,-9.42 -8.39,-18.74l-39.18 -97c-0.93,-2.42 -1.85,-4.84 -2.78,-7.26 -0.98,-2.42 -1.75,-4.84 -2.42,-7.36 -0.67,-2.52 -0.98,-4.69 -0.98,-6.49 0,-2.83 0.88,-5.61 2.58,-8.39 1.7,-2.78 4.07,-5.05 7.05,-6.79 3.04,-1.75 6.28,-2.63 9.83,-2.63 6.8,0 11.53,1.96 14.11,5.87 2.52,3.96 5.35,10.55 8.5,19.77z"/>
  <path id="3" class="fil2" d="M1222.95 572.57l0 119.04c0,8.24 -1.96,14.47 -5.87,18.69 -3.91,4.22 -8.86,6.33 -14.88,6.33 -6.03,0 -10.92,-2.16 -14.67,-6.49 -3.76,-4.33 -5.66,-10.51 -5.66,-18.54l0 -117.8c0,-8.19 1.9,-14.32 5.66,-18.44 3.76,-4.12 8.65,-6.18 14.67,-6.18 6.02,0 10.97,2.06 14.88,6.18 3.91,4.12 5.87,9.89 5.87,17.2zm-20.34 -42.53c-5.72,0 -10.61,-1.75 -14.67,-5.25 -4.07,-3.5 -6.08,-8.49 -6.08,-14.93 0,-5.77 2.06,-10.55 6.23,-14.31 4.17,-3.76 9.01,-5.66 14.52,-5.66 5.35,0 10.04,1.7 14.16,5.1 4.12,3.45 6.18,8.39 6.18,14.88 0,6.33 -2.01,11.28 -6.02,14.83 -4.01,3.55 -8.75,5.35 -14.31,5.35z"/>
  <path id="4" class="fil2" d="M1380.46 643.11l-80.58 0c0.1,9.37 2.01,17.61 5.66,24.77 3.66,7.16 8.55,12.51 14.63,16.11 6.08,3.66 12.82,5.46 20.13,5.46 4.94,0 9.42,-0.57 13.49,-1.75 4.12,-1.13 8.03,-2.93 11.84,-5.41 3.86,-2.47 7.36,-5.1 10.55,-7.93 3.24,-2.83 7.42,-6.64 12.56,-11.48 2.11,-1.8 5.1,-2.73 9.01,-2.73 4.22,0 7.67,1.19 10.3,3.5 2.58,2.27 3.92,5.56 3.92,9.78 0,3.71 -1.5,8.03 -4.38,13.03 -2.93,4.94 -7.31,9.73 -13.23,14.26 -5.87,4.58 -13.24,8.39 -22.14,11.38 -8.91,3.04 -19.16,4.53 -30.69,4.53 -26.46,0 -47.01,-7.57 -61.68,-22.66 -14.67,-15.09 -21.99,-35.53 -21.99,-61.37 0,-12.15 1.8,-23.48 5.4,-33.88 3.61,-10.4 8.91,-19.31 15.81,-26.77 6.95,-7.42 15.5,-13.13 25.64,-17.09 10.14,-3.96 21.42,-5.97 33.78,-5.97 16.11,0 29.91,3.4 41.39,10.2 11.53,6.8 20.13,15.55 25.9,26.36 5.72,10.76 8.6,21.73 8.6,32.9 0,10.35 -2.98,17.09 -8.9,20.18 -5.92,3.04 -14.26,4.58 -25.02,4.58zm-80.58 -23.48l74.66 0c-0.98,-14.06 -4.79,-24.56 -11.38,-31.56 -6.59,-6.95 -15.24,-10.45 -26,-10.45 -10.3,0 -18.69,3.55 -25.28,10.6 -6.59,7.11 -10.61,17.56 -12,31.41z"/>
  <path id="5" class="fil2" d="M1486.42 571.96l0 4.99c7.26,-9.58 15.19,-16.58 23.79,-21.06 8.6,-4.48 18.48,-6.7 29.65,-6.7 10.86,0 20.55,2.37 29.14,7.11 8.55,4.69 14.93,11.38 19.15,20.03 2.73,5.05 4.48,10.45 5.3,16.32 0.77,5.82 1.19,13.23 1.19,22.29l0 76.66c0,8.24 -1.91,14.47 -5.66,18.69 -3.76,4.22 -8.7,6.33 -14.73,6.33 -6.13,0 -11.12,-2.16 -14.98,-6.49 -3.81,-4.33 -5.72,-10.51 -5.72,-18.54l0 -68.69c0,-13.54 -1.9,-23.94 -5.66,-31.15 -3.76,-7.16 -11.28,-10.76 -22.55,-10.76 -7.31,0 -14,2.16 -20.08,6.54 -6.02,4.38 -10.45,10.4 -13.23,18.07 -2.01,6.13 -3.04,17.56 -3.04,34.39l0 51.59c0,8.34 -1.96,14.57 -5.82,18.74 -3.86,4.17 -8.86,6.28 -14.93,6.28 -5.92,0 -10.81,-2.16 -14.62,-6.49 -3.81,-4.33 -5.71,-10.51 -5.71,-18.54l0 -119.04c0,-7.82 1.7,-13.69 5.09,-17.56 3.45,-3.86 8.08,-5.82 14.01,-5.82 3.61,0 6.9,0.88 9.78,2.58 2.93,1.7 5.25,4.27 7,7.67 1.75,3.4 2.62,7.62 2.62,12.51z"/>
  <path id="6" class="fil2" d="M1748.49 693.11l0 -4.07c-5.51,6.34 -10.97,11.48 -16.37,15.45 -5.35,3.96 -11.22,7 -17.51,9.06 -6.28,2.06 -13.13,3.09 -20.6,3.09 -9.83,0 -18.95,-2.11 -27.34,-6.28 -8.39,-4.17 -15.7,-10.09 -21.83,-17.87 -6.13,-7.72 -10.76,-16.84 -13.95,-27.29 -3.14,-10.45 -4.74,-21.78 -4.74,-33.93 0,-25.74 6.28,-45.82 18.84,-60.19 12.56,-14.36 29.14,-21.57 49.63,-21.57 11.89,0 21.88,2.06 30.02,6.13 8.13,4.07 16.12,10.35 23.84,18.84l0 -60.81c0,-8.44 1.7,-14.83 5.05,-19.15 3.4,-4.32 8.19,-6.49 14.42,-6.49 6.23,0 11.02,2.01 14.42,5.97 3.35,3.96 5.05,9.83 5.05,17.56l0 181.55c0,7.82 -1.8,13.75 -5.41,17.66 -3.66,3.92 -8.34,5.87 -14.06,5.87 -5.61,0 -10.3,-2.06 -13.95,-6.13 -3.66,-4.07 -5.51,-9.89 -5.51,-17.4zm-80.94 -60.45c0,11.17 1.75,20.65 5.2,28.53 3.45,7.82 8.19,13.7 14.26,17.66 6.02,3.96 12.62,5.97 19.72,5.97 7.26,0 13.85,-1.9 19.82,-5.66 5.97,-3.76 10.76,-9.53 14.31,-17.3 3.55,-7.82 5.35,-17.51 5.35,-29.19 0,-10.91 -1.8,-20.34 -5.35,-28.22 -3.55,-7.93 -8.39,-13.95 -14.47,-18.12 -6.08,-4.17 -12.72,-6.23 -19.98,-6.23 -7.51,0 -14.26,2.11 -20.18,6.39 -5.92,4.27 -10.51,10.4 -13.8,18.38 -3.24,8.04 -4.89,17.3 -4.89,27.8z"/>
  <path id="7" class="fil2" d="M1932.87 693.52c-9.99,7.72 -19.62,13.49 -28.88,17.35 -9.32,3.86 -19.77,5.77 -31.3,5.77 -10.55,0 -19.87,-2.11 -27.86,-6.28 -7.98,-4.17 -14.16,-9.78 -18.48,-16.94 -4.32,-7.16 -6.49,-14.88 -6.49,-23.22 0,-11.28 3.55,-20.85 10.71,-28.78 7.16,-7.98 16.99,-13.28 29.5,-16.01 2.58,-0.62 9.06,-1.96 19.41,-4.07 10.35,-2.11 19.26,-4.02 26.62,-5.82 7.36,-1.75 15.4,-3.86 24.04,-6.39 -0.51,-10.86 -2.68,-18.84 -6.54,-23.89 -3.92,-5.1 -11.89,-7.62 -24.1,-7.62 -10.45,0 -18.33,1.44 -23.58,4.38 -5.31,2.88 -9.84,7.26 -13.59,13.13 -3.76,5.82 -6.43,9.63 -7.98,11.53 -1.6,1.85 -4.94,2.78 -10.04,2.78 -4.63,0 -8.65,-1.49 -12,-4.48 -3.35,-2.93 -5.05,-6.74 -5.05,-11.38 0,-7.26 2.58,-14.31 7.67,-21.16 5.15,-6.85 13.13,-12.46 23.99,-16.89 10.86,-4.43 24.41,-6.64 40.62,-6.64 18.07,0 32.34,2.16 42.68,6.44 10.35,4.27 17.66,11.02 21.94,20.29 4.27,9.27 6.43,21.52 6.43,36.81 0,9.68 -0.05,17.87 -0.1,24.61 -0.05,6.74 -0.1,14.26 -0.21,22.5 0,7.72 1.29,15.81 3.86,24.2 2.58,8.34 3.81,13.75 3.81,16.17 0,4.22 -1.96,8.08 -5.92,11.54 -4.02,3.45 -8.5,5.2 -13.54,5.2 -4.22,0 -8.39,-1.96 -12.51,-5.92 -4.12,-3.96 -8.5,-9.68 -13.13,-17.2zm-2.73 -59.68c-6.02,2.21 -14.78,4.58 -26.31,7 -11.48,2.47 -19.46,4.33 -23.89,5.46 -4.43,1.18 -8.65,3.45 -12.67,6.79 -4.01,3.4 -6.02,8.08 -6.02,14.16 0,6.23 2.37,11.53 7.1,15.91 4.69,4.38 10.86,6.59 18.54,6.59 8.13,0 15.65,-1.8 22.5,-5.35 6.9,-3.6 11.95,-8.19 15.19,-13.85 3.7,-6.23 5.56,-16.53 5.56,-30.84l0 -5.87z"/>
  <path id="8" class="fil2" d="M2141.81 689.35l0 -70.12 -54.01 -83.67c-4.74,-7.57 -8.08,-13.44 -10.04,-17.66 -1.96,-4.22 -2.93,-7.88 -2.93,-11.02 0,-5.09 2.01,-9.52 5.97,-13.28 3.96,-3.71 8.86,-5.56 14.73,-5.56 6.13,0 10.76,1.75 13.95,5.2 3.14,3.45 7.88,10.35 14.21,20.7l41.35 67.09 41.81 -67.09c2.47,-4.12 4.58,-7.57 6.33,-10.4 1.7,-2.78 3.55,-5.41 5.66,-7.88 2.06,-2.47 4.33,-4.38 6.85,-5.66 2.52,-1.29 5.56,-1.96 9.21,-1.96 5.61,0 10.3,1.85 14.06,5.51 3.81,3.66 5.66,7.93 5.66,12.72 0,3.91 -0.93,7.88 -2.83,11.79 -1.91,3.91 -5.2,9.32 -9.84,16.27l-55.35 84.9 0 70.12c0,9.16 -2.11,15.96 -6.33,20.49 -4.22,4.53 -9.63,6.8 -16.12,6.8 -6.64,0 -12.05,-2.22 -16.17,-6.7 -4.12,-4.48 -6.18,-11.32 -6.18,-20.6z"/>
  <path id="9" class="fil2" d="M2367.27 693.52c-9.99,7.72 -19.62,13.49 -28.88,17.35 -9.32,3.86 -19.77,5.77 -31.3,5.77 -10.55,0 -19.87,-2.11 -27.86,-6.28 -7.98,-4.17 -14.16,-9.78 -18.48,-16.94 -4.32,-7.16 -6.49,-14.88 -6.49,-23.22 0,-11.28 3.55,-20.85 10.71,-28.78 7.16,-7.98 16.99,-13.28 29.5,-16.01 2.58,-0.62 9.06,-1.96 19.41,-4.07 10.35,-2.11 19.26,-4.02 26.62,-5.82 7.36,-1.75 15.4,-3.86 24.04,-6.39 -0.51,-10.86 -2.68,-18.84 -6.54,-23.89 -3.92,-5.1 -11.89,-7.62 -24.1,-7.62 -10.45,0 -18.33,1.44 -23.58,4.38 -5.31,2.88 -9.84,7.26 -13.59,13.13 -3.76,5.82 -6.43,9.63 -7.98,11.53 -1.6,1.85 -4.94,2.78 -10.04,2.78 -4.63,0 -8.65,-1.49 -12,-4.48 -3.35,-2.93 -5.05,-6.74 -5.05,-11.38 0,-7.26 2.58,-14.31 7.67,-21.16 5.15,-6.85 13.13,-12.46 23.99,-16.89 10.86,-4.43 24.41,-6.64 40.62,-6.64 18.07,0 32.34,2.16 42.68,6.44 10.35,4.27 17.66,11.02 21.94,20.29 4.27,9.27 6.43,21.52 6.43,36.81 0,9.68 -0.05,17.87 -0.1,24.61 -0.05,6.74 -0.1,14.26 -0.21,22.5 0,7.72 1.29,15.81 3.86,24.2 2.58,8.34 3.81,13.75 3.81,16.17 0,4.22 -1.96,8.08 -5.92,11.54 -4.02,3.45 -8.5,5.2 -13.54,5.2 -4.22,0 -8.39,-1.96 -12.51,-5.92 -4.12,-3.96 -8.5,-9.68 -13.13,-17.2zm-2.73 -59.68c-6.02,2.21 -14.78,4.58 -26.31,7 -11.48,2.47 -19.46,4.33 -23.89,5.46 -4.43,1.18 -8.65,3.45 -12.67,6.79 -4.01,3.4 -6.02,8.08 -6.02,14.16 0,6.23 2.37,11.53 7.1,15.91 4.69,4.38 10.86,6.59 18.54,6.59 8.13,0 15.65,-1.8 22.5,-5.35 6.9,-3.6 11.95,-8.19 15.19,-13.85 3.7,-6.23 5.56,-16.53 5.56,-30.84l0 -5.87z"/>
  <rect class="fil0" x="67.6" y="742.56" width="2401.21" height="38.31"/>
 </g>
</svg>
